<mxfile host="app.diagrams.net" modified="2020-12-15T04:26:55.606Z" agent="5.0 (Windows NT 10.0; WOW64) AppleWebKit/537.36 (KHTML, like Gecko) Chrome/70.0.3538.25 Safari/537.36 Core/1.70.3823.400 QQBrowser/10.7.4307.400" etag="JcHqBMwR7_LPINm16eIS" version="13.10.4" type="github">
  <diagram id="C5RBs43oDa-KdzZeNtuy" name="Page-1">
    <mxGraphModel dx="2119" dy="724" grid="1" gridSize="10" guides="1" tooltips="1" connect="1" arrows="1" fold="1" page="1" pageScale="1" pageWidth="827" pageHeight="1169" math="0" shadow="0">
      <root>
        <mxCell id="WIyWlLk6GJQsqaUBKTNV-0" />
        <mxCell id="WIyWlLk6GJQsqaUBKTNV-1" parent="WIyWlLk6GJQsqaUBKTNV-0" />
        <mxCell id="WIyWlLk6GJQsqaUBKTNV-2" value="" style="rounded=0;html=1;jettySize=auto;orthogonalLoop=1;fontSize=11;endArrow=block;endFill=0;endSize=8;strokeWidth=1;shadow=0;labelBackgroundColor=none;edgeStyle=orthogonalEdgeStyle;" parent="WIyWlLk6GJQsqaUBKTNV-1" source="WIyWlLk6GJQsqaUBKTNV-3" edge="1">
          <mxGeometry relative="1" as="geometry">
            <mxPoint x="220" y="170" as="targetPoint" />
          </mxGeometry>
        </mxCell>
        <mxCell id="WIyWlLk6GJQsqaUBKTNV-3" value="海报曝光" style="rounded=1;whiteSpace=wrap;html=1;fontSize=12;glass=0;strokeWidth=1;shadow=0;" parent="WIyWlLk6GJQsqaUBKTNV-1" vertex="1">
          <mxGeometry x="160" y="80" width="120" height="40" as="geometry" />
        </mxCell>
        <mxCell id="GmCBUbJuuuMS6H_ygoEm-3" style="edgeStyle=orthogonalEdgeStyle;rounded=0;orthogonalLoop=1;jettySize=auto;html=1;exitX=0.5;exitY=1;exitDx=0;exitDy=0;" edge="1" parent="WIyWlLk6GJQsqaUBKTNV-1" source="GmCBUbJuuuMS6H_ygoEm-1" target="GmCBUbJuuuMS6H_ygoEm-2">
          <mxGeometry relative="1" as="geometry" />
        </mxCell>
        <mxCell id="GmCBUbJuuuMS6H_ygoEm-1" value="小A看到海报&lt;br&gt;扫码进群/关注公众号" style="rounded=0;whiteSpace=wrap;html=1;" vertex="1" parent="WIyWlLk6GJQsqaUBKTNV-1">
          <mxGeometry x="160" y="170" width="120" height="60" as="geometry" />
        </mxCell>
        <mxCell id="GmCBUbJuuuMS6H_ygoEm-6" style="edgeStyle=orthogonalEdgeStyle;rounded=0;orthogonalLoop=1;jettySize=auto;html=1;" edge="1" parent="WIyWlLk6GJQsqaUBKTNV-1" source="GmCBUbJuuuMS6H_ygoEm-2" target="GmCBUbJuuuMS6H_ygoEm-5">
          <mxGeometry relative="1" as="geometry" />
        </mxCell>
        <mxCell id="GmCBUbJuuuMS6H_ygoEm-2" value="小A收到信息&lt;br&gt;邀请朋友关注" style="rounded=0;whiteSpace=wrap;html=1;" vertex="1" parent="WIyWlLk6GJQsqaUBKTNV-1">
          <mxGeometry x="160" y="330" width="120" height="50" as="geometry" />
        </mxCell>
        <mxCell id="GmCBUbJuuuMS6H_ygoEm-4" value="机器人@小A，并发布任务话术及海报" style="text;html=1;strokeColor=none;fillColor=none;align=center;verticalAlign=middle;whiteSpace=wrap;rounded=0;" vertex="1" parent="WIyWlLk6GJQsqaUBKTNV-1">
          <mxGeometry x="100" y="270" width="110" height="20" as="geometry" />
        </mxCell>
        <mxCell id="GmCBUbJuuuMS6H_ygoEm-8" style="edgeStyle=orthogonalEdgeStyle;rounded=0;orthogonalLoop=1;jettySize=auto;html=1;entryX=0;entryY=0.5;entryDx=0;entryDy=0;" edge="1" parent="WIyWlLk6GJQsqaUBKTNV-1" source="GmCBUbJuuuMS6H_ygoEm-5" target="GmCBUbJuuuMS6H_ygoEm-7">
          <mxGeometry relative="1" as="geometry" />
        </mxCell>
        <mxCell id="GmCBUbJuuuMS6H_ygoEm-10" style="edgeStyle=orthogonalEdgeStyle;rounded=0;orthogonalLoop=1;jettySize=auto;html=1;entryX=0;entryY=0.5;entryDx=0;entryDy=0;" edge="1" parent="WIyWlLk6GJQsqaUBKTNV-1" source="GmCBUbJuuuMS6H_ygoEm-5" target="GmCBUbJuuuMS6H_ygoEm-2">
          <mxGeometry relative="1" as="geometry">
            <Array as="points">
              <mxPoint x="130" y="520" />
              <mxPoint x="130" y="355" />
            </Array>
          </mxGeometry>
        </mxCell>
        <mxCell id="GmCBUbJuuuMS6H_ygoEm-5" value="小B看到海报&lt;br&gt;关注公众号/加好友/进群" style="rounded=0;whiteSpace=wrap;html=1;" vertex="1" parent="WIyWlLk6GJQsqaUBKTNV-1">
          <mxGeometry x="150" y="485" width="140" height="70" as="geometry" />
        </mxCell>
        <mxCell id="GmCBUbJuuuMS6H_ygoEm-12" style="edgeStyle=orthogonalEdgeStyle;rounded=0;orthogonalLoop=1;jettySize=auto;html=1;entryX=1;entryY=0.5;entryDx=0;entryDy=0;" edge="1" parent="WIyWlLk6GJQsqaUBKTNV-1" source="GmCBUbJuuuMS6H_ygoEm-7" target="WIyWlLk6GJQsqaUBKTNV-3">
          <mxGeometry relative="1" as="geometry">
            <Array as="points">
              <mxPoint x="550" y="100" />
            </Array>
          </mxGeometry>
        </mxCell>
        <mxCell id="GmCBUbJuuuMS6H_ygoEm-7" value="小B转发海报" style="rounded=0;whiteSpace=wrap;html=1;" vertex="1" parent="WIyWlLk6GJQsqaUBKTNV-1">
          <mxGeometry x="490" y="490" width="120" height="60" as="geometry" />
        </mxCell>
        <mxCell id="GmCBUbJuuuMS6H_ygoEm-9" value="机器人@小B，并发布任务话术及海报" style="text;html=1;strokeColor=none;fillColor=none;align=center;verticalAlign=middle;whiteSpace=wrap;rounded=0;" vertex="1" parent="WIyWlLk6GJQsqaUBKTNV-1">
          <mxGeometry x="340" y="485" width="110" height="20" as="geometry" />
        </mxCell>
        <mxCell id="GmCBUbJuuuMS6H_ygoEm-11" value="机器人@小A，并发布奖励话术或活动进度" style="text;html=1;strokeColor=none;fillColor=none;align=center;verticalAlign=middle;whiteSpace=wrap;rounded=0;" vertex="1" parent="WIyWlLk6GJQsqaUBKTNV-1">
          <mxGeometry x="-20" y="410" width="130" height="40" as="geometry" />
        </mxCell>
        <mxCell id="GmCBUbJuuuMS6H_ygoEm-13" value="裂变开始" style="text;html=1;align=center;verticalAlign=middle;resizable=0;points=[];autosize=1;" vertex="1" parent="WIyWlLk6GJQsqaUBKTNV-1">
          <mxGeometry x="580" y="270" width="60" height="20" as="geometry" />
        </mxCell>
      </root>
    </mxGraphModel>
  </diagram>
</mxfile>
